<svg xmlns="http://www.w3.org/2000/svg" width="512" height="512" viewBox="0 0 512 512">
  <defs>
    <linearGradient id="logoGradient512" x1="0%" y1="0%" x2="100%" y2="100%">
      <stop offset="0%" style="stop-color:#667eea"/>
      <stop offset="30%" style="stop-color:#764ba2"/>
      <stop offset="70%" style="stop-color:#f093fb"/>
      <stop offset="100%" style="stop-color:#f5576c"/>
    </linearGradient>
    <filter id="glow512">
      <feGaussianBlur stdDeviation="8" result="coloredBlur"/>
      <feMerge> 
        <feMergeNode in="coloredBlur"/>
        <feMergeNode in="SourceGraphic"/>
      </feMerge>
    </filter>
  </defs>
  
  <!-- Background -->
  <rect width="512" height="512" fill="url(#logoGradient512)" rx="86" filter="url(#glow512)"/>
  
  <!-- AI Neural Network -->
  <g fill="white" opacity="0.95">
    <!-- Central node -->
    <circle cx="256" cy="256" r="16"/>
    
    <!-- Main neural connections -->
    <line x1="256" y1="256" x2="180" y2="180" stroke="white" stroke-width="8" opacity="0.8"/>
    <line x1="256" y1="256" x2="332" y2="180" stroke="white" stroke-width="8" opacity="0.8"/>
    <line x1="256" y1="256" x2="180" y2="332" stroke="white" stroke-width="8" opacity="0.8"/>
    <line x1="256" y1="256" x2="332" y2="332" stroke="white" stroke-width="8" opacity="0.8"/>
    <line x1="256" y1="256" x2="256" y2="140" stroke="white" stroke-width="8" opacity="0.8"/>
    <line x1="256" y1="256" x2="256" y2="372" stroke="white" stroke-width="8" opacity="0.8"/>
    <line x1="256" y1="256" x2="140" y2="256" stroke="white" stroke-width="8" opacity="0.8"/>
    <line x1="256" y1="256" x2="372" y2="256" stroke="white" stroke-width="8" opacity="0.8"/>
    
    <!-- Primary nodes -->
    <circle cx="180" cy="180" r="12"/>
    <circle cx="332" cy="180" r="12"/>
    <circle cx="180" cy="332" r="12"/>
    <circle cx="332" cy="332" r="12"/>
    <circle cx="256" cy="140" r="12"/>
    <circle cx="256" cy="372" r="12"/>
    <circle cx="140" cy="256" r="12"/>
    <circle cx="372" cy="256" r="12"/>
    
    <!-- Secondary connections -->
    <line x1="180" y1="180" x2="120" y2="120" stroke="white" stroke-width="4" opacity="0.6"/>
    <line x1="332" y1="180" x2="392" y2="120" stroke="white" stroke-width="4" opacity="0.6"/>
    <line x1="180" y1="332" x2="120" y2="392" stroke="white" stroke-width="4" opacity="0.6"/>
    <line x1="332" y1="332" x2="392" y2="392" stroke="white" stroke-width="4" opacity="0.6"/>
    
    <!-- Tertiary connections -->
    <line x1="256" y1="140" x2="180" y2="80" stroke="white" stroke-width="3" opacity="0.5"/>
    <line x1="256" y1="140" x2="332" y2="80" stroke="white" stroke-width="3" opacity="0.5"/>
    <line x1="256" y1="372" x2="180" y2="432" stroke="white" stroke-width="3" opacity="0.5"/>
    <line x1="256" y1="372" x2="332" y2="432" stroke="white" stroke-width="3" opacity="0.5"/>
    <line x1="140" y1="256" x2="80" y2="180" stroke="white" stroke-width="3" opacity="0.5"/>
    <line x1="140" y1="256" x2="80" y2="332" stroke="white" stroke-width="3" opacity="0.5"/>
    <line x1="372" y1="256" x2="432" y2="180" stroke="white" stroke-width="3" opacity="0.5"/>
    <line x1="372" y1="256" x2="432" y2="332" stroke="white" stroke-width="3" opacity="0.5"/>
    
    <!-- Outer layer nodes -->
    <circle cx="120" cy="120" r="8"/>
    <circle cx="392" cy="120" r="8"/>
    <circle cx="120" cy="392" r="8"/>
    <circle cx="392" cy="392" r="8"/>
    <circle cx="180" cy="80" r="8"/>
    <circle cx="332" cy="80" r="8"/>
    <circle cx="180" cy="432" r="8"/>
    <circle cx="332" cy="432" r="8"/>
    <circle cx="80" cy="180" r="8"/>
    <circle cx="80" cy="332" r="8"/>
    <circle cx="432" cy="180" r="8"/>
    <circle cx="432" cy="332" r="8"/>
    
    <!-- Corner sparkles -->
    <polygon points="80,80 85,70 90,80 100,75 90,90 85,100 80,90 70,95" transform="rotate(45 85 85)"/>
    <polygon points="432,70 437,60 442,70 452,65 442,80 437,90 432,80 422,85" transform="rotate(30 437 75)"/>
    <polygon points="442,432 447,422 452,432 462,427 452,442 447,452 442,442 432,447" transform="rotate(60 447 437)"/>
    <polygon points="70,442 75,432 80,442 90,437 80,452 75,462 70,452 60,457" transform="rotate(15 75 447)"/>
    
    <!-- Additional detail sparkles -->
    <circle cx="60" cy="60" r="3" opacity="0.8"/>
    <circle cx="452" cy="60" r="3" opacity="0.8"/>
    <circle cx="60" cy="452" r="3" opacity="0.8"/>
    <circle cx="452" cy="452" r="3" opacity="0.8"/>
  </g>
</svg>
